<svg width="52" height="42" viewBox="0 0 52 42" fill="none" xmlns="http://www.w3.org/2000/svg">
<path d="M18.8167 37H14.009C8.69865 37 4.39375 33.6917 4.39375 29.6109V17.987C4.39375 15.4032 6.15 13.007 9.0254 11.6678L21.0445 6.06997C24.1077 4.64334 27.9485 4.64334 31.0117 6.06997L43.0308 11.6678C45.9063 13.007 47.6625 15.4032 47.6625 17.987V29.6109C47.6625 33.6917 43.3575 37 38.0472 37H33.2396M18.8167 37V29.6109C18.8167 26.5501 22.0452 24.069 26.0281 24.069C30.011 24.069 33.2396 26.5501 33.2396 29.6109V37M18.8167 37H33.2396" stroke="black" stroke-width="8.36083" stroke-linecap="round" stroke-linejoin="round"/>
</svg>
